# xmcd
#
# Track frame offsets:
#	150
#	13730
#	25677
#	36467
#	51487
#	64802
#	74587
#	88342
#	102135
#	115412
#	128292
#
# Disc length: 1965 seconds
#
# Revision: 2
# Processed by: cddbd v1.5.2PL0 Copyright (c) Steve Scherf et al.
# Submitted via: audiograbber 1.83.01
#
DISCID=9a07ab0b
DTITLE=Billy Stewart - 20th Century Masters - The Millenium Collection - The Be
DTITLE=st Of
DYEAR=2000
DGENRE=Oldies
TTITLE0=I Do Love You
TTITLE1=Fat Boy 
TTITLE2=Reap What You Sow
TTITLE3=Sitting In The Park
TTITLE4=Love Me
TTITLE5=Strange Feeling
TTITLE6=Secret Love
TTITLE7=Cross My Heart
TTITLE8=Every Day I Have The Blues
TTITLE9=Tell Me The Truth
TTITLE10=Summertime
EXTD=
EXTT0=
EXTT1=
EXTT2=
EXTT3=
EXTT4=
EXTT5=
EXTT6=
EXTT7=
EXTT8=
EXTT9=
EXTT10=
PLAYORDER=
